<svg xmlns="http://www.w3.org/2000/svg" xmlns:xlink="http://www.w3.org/1999/xlink" version="1.1" x="0px" y="0px" viewBox="0 0 850.4 1063" style="enable-background:new 0 0 850.4 850.4;" xml:space="preserve"><g><path d="M840.2,422.9c-5-3.2-49.1-2.2-55.3-2.7c-6.9-0.6-124.6-4.3-131.5-5c-27.5-2.8-94.5-7.1-122.1-8.6   c-12.5-0.7-34.3,0.6-36.1,15.5c-0.1,0.6-0.1,1.2-0.1,1.8c0,0.6,0,1.2,0.1,1.8c1.8,14.8,23.5,16.2,36.1,15.5   c27.6-1.5,94.6-5.8,122.1-8.6c6.8-0.7,124.6-4.4,131.5-5c6.2-0.5,50.3,0.5,55.3-2.7C840.8,424.6,840.8,423.3,840.2,422.9z"/><path d="M475.6,414.5c-6.1,0-11,4.4-11,9.8c0,5.4,4.9,9.8,11,9.8s11-4.4,11-9.8C486.6,418.9,481.6,414.5,475.6,414.5z"/><path d="M425.3,398c-16.9,0-30.7,12.2-30.7,27.2c0,15,13.7,27.2,30.7,27.2c16.9,0,30.7-12.2,30.7-27.2   C456,410.2,442.3,398,425.3,398z M425.3,447.6c-14,0-25.3-10-25.3-22.4c0-12.4,11.3-22.4,25.3-22.4c14,0,25.3,10,25.3,22.4   C450.6,437.6,439.3,447.6,425.3,447.6z"/><path d="M425.3,407.8c-10.8,0-19.6,7.8-19.6,17.4c0,9.6,8.8,17.4,19.6,17.4c10.8,0,19.6-7.8,19.6-17.4   C444.9,415.6,436.1,407.8,425.3,407.8z"/><path d="M319.1,409.2c-27.6,1.5-94.6,5.8-122.1,8.6c-6.8,0.7-124.6,4.4-131.5,5c-6.2,0.5-50.3-0.5-55.3,2.7c-0.6,0.4-0.6,1.7,0,2   c5,3.2,49.1,2.2,55.3,2.7c6.9,0.6,124.6,4.3,131.5,5c27.5,2.8,94.5,7.1,122.1,8.6c12.5,0.7,34.3-0.6,36.1-15.5   c0.1-0.6,0.1-1.2,0.1-1.8c0-0.6,0-1.2-0.1-1.8C353.3,409.8,331.6,408.5,319.1,409.2z"/><path d="M374.8,416.3c-6.1,0-11,4.4-11,9.8c0,5.4,4.9,9.8,11,9.8s11-4.4,11-9.8C385.9,420.7,380.9,416.3,374.8,416.3z"/></g><text x="0" y="865.4" fill="#000000" font-size="5px" font-weight="bold" font-family="'Helvetica Neue', Helvetica, Arial-Unicode, Arial, Sans-serif">Created by Alvaro Cabrera</text><text x="0" y="870.4" fill="#000000" font-size="5px" font-weight="bold" font-family="'Helvetica Neue', Helvetica, Arial-Unicode, Arial, Sans-serif">from the Noun Project</text></svg>